<?xml version="1.0" encoding="iso-8859-1"?>
<!-- Generator: Adobe Illustrator 17.1.0, SVG Export Plug-In . SVG Version: 6.00 Build 0)  -->
<!DOCTYPE svg PUBLIC "-//W3C//DTD SVG 1.1//EN" "http://www.w3.org/Graphics/SVG/1.1/DTD/svg11.dtd">
<svg version="1.1" id="Layer_1" xmlns="http://www.w3.org/2000/svg" xmlns:xlink="http://www.w3.org/1999/xlink" x="0px" y="0px"
	 viewBox="0 0 64 64" style="enable-background:new 0 0 64 64;" xml:space="preserve">
<path d="M43.665,48.861c1.337-2.299,3.475-15.462-13.847-21.45c0.107-3.742-2.245-9.201-4.063-11.233c0,0-0.642-3.05-0.855-4.173
	c-0.214-1.123-2.192-4.225-3.849-4.546c0,0-0.695,2.405-0.481,3.367c0,0-2.299-2.273-3.716-2.26c0,0-0.307,2.733,0.013,3.161
	c0,0-2.559,1.741-2.346,2.917c0,0-7.802,2.688-6.84,3.864c0,0,0.67,1.023,1.392,1.344c0,0,1.525,2.971,5.935,2.81
	c3.328,0.12,1.725,0.844,1.604,1.927s0.201,2.888,0.161,3.57s-1.203,4.251,0.04,8.3c1.243,4.05-1.163,15.704-2.686,16.506
	C12.604,53.768,11.642,56,12.925,56h6.736c0,0,1.016-1.63,1.898-1.683c0.882-0.053,1.149-2.713,1.096-3.435s0.521-5.633,0.007-7.718
	c-0.514-2.085,0.127-2.63,0.408-2.71c0.281-0.08-0.762-2.578-2.727-1.174c-0.874,0.533-1.968-1.467-1.968-1.467
	s-0.105-0.585,0.524-0.907c0.554-0.905-1.363-1.485,1.283-3.53c-0.12-1.283,0.702-2.607,1.042-2.868c0,0,0.441,0.1,0.561,0.401
	c0,0,0.551-1.424,1.328-1.424c0.777,0,1.519,1.871,1.679,2.967c0,0,5.293,1.577,6.041,8.581c0,0,4.117,0.748,5.293,2.94
	c0,0,0.622-2.654,1.39-4.117c0.651-1.239,0.855-4.437-2.085-4.277c-2.94,0.16-1.428,2.382-1.283,2.727
	c0.372,0.882-0.278,2.569-1.978,1.657c-1.7-0.912-1.069-6.415,3.208-6.95c4.277-0.535,5.56,3.635,4.758,6.79
	c-0.802,3.154-2.406,5.212-1.711,7.083S40.511,54,35.593,56h2.031c0,0,3.635-2.271,3.796-3.02c0.16-0.748,10.425,8.354,17.161,0.441
	c2.117-2.868,0.16-7.104,0-7.424C58.421,45.677,52.968,51.855,43.665,48.861z"/>
<path d="M27.76,49.826c-0.241-0.521-1.684-0.308-1.684-0.308C25.916,51.724,23.39,56,23.39,56h1.644
	c0.281-4,4.651-1.022,3.448-2.626C27.279,51.77,28.001,50.348,27.76,49.826z"/>
</svg>
